mtllib ./pb-84694.mtl
g FullScytheBlade
v -0.7799911 -0.2181091 0.01000404
v -0.555603 -0.01691031 0.02409172
v -0.5454712 -0.04420733 0.02409172
v 0.04362488 0.08277559 0.02409172
v 0.02931213 0.1693749 0.02409172
v 0.6496429 0.07783484 0.02409172
v 0.6167984 0.2222404 0.02409172
v 0.7799911 0.07677221 0.02409172
v 0.7799911 0.2369254 0.02409172
v -0.7799911 -0.2181091 0.01000404
v -0.7799911 -0.2181091 -0.01000404
v -0.555603 -0.01691031 -0.02409172
v -0.555603 -0.01691031 0.02409172
v 0.5527802 -0.07165217 -0.006710052
v 0.6747208 -0.08338118 -0.006710052
v 0.7799911 0.07677221 -0.02409172
v 0.6496429 0.07783484 -0.02409172
v -0.01415253 -0.01711869 -0.006710052
v 0.04362488 0.08277559 -0.02409172
v -0.5366917 -0.09704947 -0.006710052
v -0.5454712 -0.04420733 -0.02409172
v -0.7799911 -0.2181091 -0.01000404
v -0.7611752 -0.2369246 -0.002786636
v -0.5454712 -0.04420733 -0.02409172
v 0.5527802 -0.07165217 0.006710052
v 0.6747208 -0.08338118 0.006710052
v 0.6747208 -0.08338118 -0.006710052
v 0.5527802 -0.07165217 -0.006710052
v -0.01415253 -0.01711869 0.006710052
v -0.01415253 -0.01711869 -0.006710052
v -0.5366917 -0.09704947 0.006710052
v -0.5366917 -0.09704947 -0.006710052
v -0.7611752 -0.2369246 -0.002786636
v -0.7799911 -0.2181091 -0.01000404
v -0.7799911 -0.2181091 0.01000404
v -0.7611752 -0.2369246 0.002786636
v 0.6747208 -0.08338118 0.006710052
v 0.7799911 0.07677221 0.02409172
v 0.7799911 0.07677221 -0.02409172
v 0.6747208 -0.08338118 -0.006710052
v 0.6496429 0.07783484 0.02409172
v 0.7799911 0.07677221 0.02409172
v 0.6747208 -0.08338118 0.006710052
v 0.5527802 -0.07165217 0.006710052
v 0.04362488 0.08277559 0.02409172
v -0.01415253 -0.01711869 0.006710052
v -0.5454712 -0.04420733 0.02409172
v -0.5366917 -0.09704947 0.006710052
v -0.7611752 -0.2369246 0.002786636
v -0.5454712 -0.04420733 0.02409172
v -0.7799911 -0.2181091 0.01000404
v -0.7799911 -0.2181091 -0.01000404
v -0.5454712 -0.04420733 -0.02409172
v -0.555603 -0.01691031 -0.02409172
v 0.02931213 0.1693749 -0.02409172
v 0.04362488 0.08277559 -0.02409172
v 0.6167984 0.2222404 -0.02409172
v 0.6496429 0.07783484 -0.02409172
v 0.7799911 0.2369254 -0.02409172
v 0.7799911 0.07677221 -0.02409172
v 0.6167984 0.2222404 -0.02409172
v 0.7799911 0.2369254 -0.02409172
v 0.7799911 0.2369254 0.02409172
v 0.6167984 0.2222404 0.02409172
v 0.02931213 0.1693749 -0.02409172
v 0.02931213 0.1693749 0.02409172
v -0.555603 -0.01691031 -0.02409172
v -0.555603 -0.01691031 0.02409172
v -0.7611752 -0.2369246 -0.002786636
v -0.7611752 -0.2369246 0.002786636
v -0.5366917 -0.09704947 0.006710052
v -0.5366917 -0.09704947 -0.006710052
v 0.7799911 0.2369254 0.02409172
v 0.7799911 0.07677221 0.02409172
v 0.7799911 0.07677221 -0.02409172
v 0.7799911 0.2369254 -0.02409172

vn -0.04704603 -0.01746208 0.9987401
vn -0.004876915 -0.001810166 0.9999865
vn -0.01506033 -0.005589943 0.999871
vn 0 0 1
vn 0 0 0.9999999
vn 0 0 1
vn 0 0 1
vn 0 0 1
vn 0 0 0.9999999
vn -0.6675878 0.7445311 0
vn -0.6675879 0.7445311 0
vn -0.6675878 0.7445311 0
vn -0.6675878 0.7445311 0
vn -0.008921827 -0.1085621 -0.9940496
vn -0.009767232 -0.1015451 -0.994783
vn -0.005477645 -0.1080354 -0.9941319
vn -0.006119585 -0.1317486 -0.9912642
vn 0.001772424 -0.1469028 -0.9891494
vn 0.02440913 -0.2075843 -0.9779125
vn 0.06552656 -0.2426144 -0.9679072
vn 0.0651033 -0.3020256 -0.9510742
vn 0.1472098 -0.2699633 -0.9515509
vn 0.1313546 -0.2378035 -0.9623905
vn 0.1548103 -0.2853943 -0.9458244
vn -0.09574721 -0.9954057 0
vn -0.0957443 -0.995406 0
vn -0.0957443 -0.995406 0
vn -0.09574805 -0.9954056 0
vn -0.01758729 -0.9998454 0
vn 0.06520053 -0.9978722 0
vn 0.1512073 -0.988502 0
vn 0.1512073 -0.988502 0
vn -0.7070979 -0.7071158 0
vn -0.7070979 -0.7071158 0
vn -0.7070979 -0.7071158 0
vn -0.7070978 -0.7071157 0
vn 0.8356414 -0.5492753 0
vn 0.8356414 -0.5492753 0
vn 0.8356414 -0.5492753 0
vn 0.8356416 -0.5492753 0
vn -0.002330275 -0.1127931 0.9936158
vn -0.0008749755 -0.1073293 0.9942232
vn -0.005477652 -0.1080354 0.9941319
vn -0.007207884 -0.1310815 0.9913455
vn 0.005733113 -0.1496402 0.9887239
vn 0.01856737 -0.2045318 0.9786839
vn 0.04374865 -0.2350378 0.9710012
vn 0.08296305 -0.2989233 0.950664
vn 0.1472098 -0.2699633 0.9515509
vn 0.1472098 -0.2699633 0.9515509
vn 0.1238843 -0.2449649 0.9615846
vn -0.04704603 -0.01746208 -0.9987401
vn -0.004876916 -0.001810166 -0.9999865
vn -0.01477866 -0.005485397 -0.9998757
vn 0 0 -1
vn 0 0 -1
vn 0 0 -1
vn 0 0 -1
vn 0 0 -1
vn 0 0 -1
vn -0.08962352 0.9959757 0
vn -0.08962298 0.9959758 0
vn -0.08962298 0.9959758 0
vn -0.08962372 0.9959757 0
vn -0.1636908 0.9865116 0
vn -0.2352969 0.9719235 0
vn -0.3034638 0.952843 0
vn -0.3034638 0.952843 0
vn 0.5288375 -0.8487231 0
vn 0.5288375 -0.8487231 0
vn 0.5288375 -0.8487231 0
vn 0.5288376 -0.8487231 0
vn 1 0 0
vn 1 0 0
vn 1 0 0
vn 1 0 0

vt 0.327258 0.05977881
vt 0.327258 0.05977884
vt 0.327258 0.05977884
vt 0.327258 0.05977881
vt 0.327258 0.05977881
vt 0.327258 0.05977881
vt 0.327258 0.05977881
vt 0.327258 0.05977881
vt 0.327258 0.05977881
vt 0.3577156 0.05977881
vt 0.3577156 0.05977881
vt 0.3577156 0.05977884
vt 0.3577156 0.05977884
vt 0.3616365 0.05977881
vt 0.3616365 0.05977881
vt 0.3616365 0.05977881
vt 0.3616365 0.05977881
vt 0.3616365 0.05977881
vt 0.3616365 0.05977881
vt 0.3616366 0.05977884
vt 0.3616366 0.05977884
vt 0.3616366 0.05977881
vt 0.3616366 0.05977881
vt 0.3616366 0.05977884
vt 0.298272 0.05977881
vt 0.298272 0.05977881
vt 0.298272 0.05977881
vt 0.298272 0.05977881
vt 0.298272 0.05977881
vt 0.298272 0.05977881
vt 0.298272 0.05977884
vt 0.298272 0.05977884
vt 0.3318626 0.05977881
vt 0.3318626 0.05977881
vt 0.3318626 0.05977881
vt 0.3318626 0.05977881
vt 0.3318626 0.05977881
vt 0.3318626 0.05977881
vt 0.3318626 0.05977881
vt 0.3318626 0.05977881
vt 0.3616365 0.05977881
vt 0.3616365 0.05977881
vt 0.3616365 0.05977881
vt 0.3616365 0.05977881
vt 0.3616365 0.05977881
vt 0.3616365 0.05977881
vt 0.3616366 0.05977884
vt 0.3616366 0.05977884
vt 0.3616366 0.05977881
vt 0.3616366 0.05977884
vt 0.3616366 0.05977881
vt 0.327258 0.05977881
vt 0.327258 0.05977884
vt 0.327258 0.05977884
vt 0.327258 0.05977881
vt 0.327258 0.05977881
vt 0.327258 0.05977881
vt 0.327258 0.05977881
vt 0.327258 0.05977881
vt 0.327258 0.05977881
vt 0.3577156 0.05977881
vt 0.3577155 0.05977881
vt 0.3577155 0.05977881
vt 0.3577156 0.05977881
vt 0.3577156 0.05977881
vt 0.3577156 0.05977881
vt 0.3577156 0.05977884
vt 0.3577156 0.05977884
vt 0.298272 0.05977881
vt 0.298272 0.05977881
vt 0.298272 0.05977884
vt 0.298272 0.05977884
vt 0.07167223 0.821742
vt 0.07167223 0.6615888
vt 0.1198557 0.6615888
vt 0.1198557 0.821742

g Medieval_Material
usemtl Medieval_Material
usemap Medieval_Material
f 2/2/2 1/1/1 3/3/3
f 4/4/4 2/2/2 3/3/3
f 5/5/5 2/2/2 4/4/4
f 6/6/6 5/5/5 4/4/4
f 7/7/7 5/5/5 6/6/6
f 8/8/8 7/7/7 6/6/6
f 9/9/9 7/7/7 8/8/8
f 11/11/11 10/10/10 12/12/12
f 12/12/12 10/10/10 13/13/13
f 15/15/15 14/14/14 16/16/16
f 16/16/16 14/14/14 17/17/17
f 14/14/14 18/18/18 17/17/17
f 17/17/17 18/18/18 19/19/19
f 18/18/18 20/20/20 19/19/19
f 19/19/19 20/20/20 21/21/21
f 23/23/23 22/22/22 20/20/20
f 20/20/20 22/22/22 24/24/24
f 26/26/26 25/25/25 27/27/27
f 27/27/27 25/25/25 28/28/28
f 25/25/25 29/29/29 28/28/28
f 28/28/28 29/29/29 30/30/30
f 29/29/29 31/31/31 30/30/30
f 30/30/30 31/31/31 32/32/32
f 34/34/34 33/33/33 35/35/35
f 35/35/35 33/33/33 36/36/36
f 38/38/38 37/37/37 39/39/39
f 39/39/39 37/37/37 40/40/40
f 42/42/42 41/41/41 43/43/43
f 43/43/43 41/41/41 44/44/44
f 41/41/41 45/45/45 44/44/44
f 44/44/44 45/45/45 46/46/46
f 45/45/45 47/47/47 46/46/46
f 46/46/46 47/47/47 48/48/48
f 50/50/50 49/49/49 48/48/48
f 51/51/51 49/49/49 50/50/50
f 53/53/53 52/52/52 54/54/54
f 55/55/55 53/53/53 54/54/54
f 56/56/56 53/53/53 55/55/55
f 57/57/57 56/56/56 55/55/55
f 58/58/58 56/56/56 57/57/57
f 59/59/59 58/58/58 57/57/57
f 60/60/60 58/58/58 59/59/59
f 62/62/62 61/61/61 63/63/63
f 63/63/63 61/61/61 64/64/64
f 61/61/61 65/65/65 64/64/64
f 64/64/64 65/65/65 66/66/66
f 65/65/65 67/67/67 66/66/66
f 66/66/66 67/67/67 68/68/68
f 70/70/70 69/69/69 71/71/71
f 71/71/71 69/69/69 72/72/72
f 74/74/74 76/76/76 73/73/73
f 76/76/76 74/74/74 75/75/75
