mtllib ./TeleportAreaSecondLevel_0.mtl
g TeleportAreaSecondLevel
v 0 1.37 -15
v 0 1.37 -10
v -5 1.37 -15
v -5 1.37 -10
v 5 1.37 -15
v 5 1.37 -10
v 2.5 1.37 -10
v 0 1.37 -15
v 0 1.37 -10
v 0 1.37 -10
v 0 1.37 -7.5
v -5 1.37 -10
v -5 1.37 -5
v 0 1.37 -5
v 5 1.37 -10
v 5 1.37 -7.5
v 2.5 1.37 -10
v 2.5 1.37 -7.5
v 0 1.37 -10
v 0 1.37 -7.5
v 2.5 1.37 -5
v 0 1.37 -5

vn 0 1 0
vn 0 1 0
vn 0 1 0
vn 0 1 0
vn 0 1 0
vn 0 1 0
vn 0 1 0
vn 0 1 0
vn 0 1 0
vn 0 1 0
vn 0 1 0
vn 0 1 0
vn 0 1 0
vn 0 1 0
vn 0 1 0
vn 0 1 0
vn 0 1 0
vn 0 1 0
vn 0 1 0
vn 0 1 0
vn 0 1 0
vn 0 1 0

vt 0 0
vt 0 5
vt 5 0
vt 5 5
vt 0 0
vt 0 5
vt 2.5 5
vt 5 0
vt 5 5
vt 0 0
vt 0 2.5
vt 5 0
vt 5 5
vt 0 5
vt 0 0
vt 0 2.5
vt 2.5 0
vt 2.5 2.5
vt 5 0
vt 5 2.5
vt 2.5 5
vt 5 5

usemtl Default_Prototype
usemap Default_Prototype
f 2/2/2 1/1/1 3/3/3
f 4/4/4 2/2/2 3/3/3
f 6/6/6 5/5/5 7/7/7
f 7/7/7 8/8/8 9/9/9
f 8/8/8 7/7/7 5/5/5
f 11/11/11 10/10/10 12/12/12
f 11/11/11 13/13/13 14/14/14
f 13/13/13 11/11/11 12/12/12
f 16/16/16 15/15/15 17/17/17
f 17/17/17 18/18/18 16/16/16
f 18/18/18 17/17/17 19/19/19
f 19/19/19 20/20/20 18/18/18
f 21/21/21 18/18/18 20/20/20
f 20/20/20 22/22/22 21/21/21
