mtllib ./pommelstage1.mtl
g pommelstage1 (1)
v 0.2628651 0.4253254 0
v 0.404508 0.25 0.1545085
v 0.154508 0.4045085 0.25
v 0.404508 0.25 0.1545085
v 0.4253249 0 0.2628655
v 0.2499995 0.1545085 0.4045085
v 0.404508 0.25 0.1545085
v 0.2499995 0.1545085 0.4045085
v 0.154508 0.4045085 0.25
v 0.154508 0.4045085 0.25
v 0.2499995 0.1545085 0.4045085
v -4.768372E-07 0.2628655 0.4253254
v 0.2628651 0.4253254 0
v 0.154508 0.4045085 0.25
v -4.768372E-07 0.5 0
v 0.154508 0.4045085 0.25
v -4.768372E-07 0.2628655 0.4253254
v -0.1545089 0.4045085 0.25
v 0.154508 0.4045085 0.25
v -0.1545089 0.4045085 0.25
v -4.768372E-07 0.5 0
v -4.768372E-07 0.5 0
v -0.1545089 0.4045085 0.25
v -0.262866 0.4253254 0
v 0.2628651 0.4253254 0
v -4.768372E-07 0.5 0
v 0.154508 0.4045085 -0.25
v -4.768372E-07 0.5 0
v -0.262866 0.4253254 0
v -0.1545089 0.4045085 -0.25
v -4.768372E-07 0.5 0
v -0.1545089 0.4045085 -0.25
v 0.154508 0.4045085 -0.25
v 0.154508 0.4045085 -0.25
v -0.1545089 0.4045085 -0.25
v -4.768372E-07 0.2628655 -0.4253254
v 0.2628651 0.4253254 0
v 0.154508 0.4045085 -0.25
v 0.404508 0.25 -0.1545085
v 0.154508 0.4045085 -0.25
v -4.768372E-07 0.2628655 -0.4253254
v 0.2499995 0.1545085 -0.4045085
v 0.154508 0.4045085 -0.25
v 0.2499995 0.1545085 -0.4045085
v 0.404508 0.25 -0.1545085
v 0.404508 0.25 -0.1545085
v 0.2499995 0.1545085 -0.4045085
v 0.4253249 0 -0.2628655
v 0.2628651 0.4253254 0
v 0.404508 0.25 -0.1545085
v 0.404508 0.25 0.1545085
v 0.404508 0.25 -0.1545085
v 0.4253249 0 -0.2628655
v 0.4999995 0 0
v 0.404508 0.25 -0.1545085
v 0.4999995 0 0
v 0.404508 0.25 0.1545085
v 0.404508 0.25 0.1545085
v 0.4999995 0 0
v 0.4253249 0 0.2628655
v -0.262866 0.4253254 0
v -0.1545089 0.4045085 0.25
v -0.4045089 0.25 0.1545085
v -0.1545089 0.4045085 0.25
v -4.768372E-07 0.2628655 0.4253254
v -0.2500005 0.1545085 0.4045085
v -0.1545089 0.4045085 0.25
v -0.2500005 0.1545085 0.4045085
v -0.4045089 0.25 0.1545085
v -0.4045089 0.25 0.1545085
v -0.2500005 0.1545085 0.4045085
v -0.4253259 0 0.2628655
v -4.768372E-07 0.2628655 0.4253254
v 0.2499995 0.1545085 0.4045085
v -4.768372E-07 0 0.5
v 0.2499995 0.1545085 0.4045085
v 0.4253249 0 0.2628655
v 0.2499995 -0.1545085 0.4045085
v 0.2499995 0.1545085 0.4045085
v 0.2499995 -0.1545085 0.4045085
v -4.768372E-07 0 0.5
v -4.768372E-07 0 0.5
v 0.2499995 -0.1545085 0.4045085
v -4.768372E-07 -0.2628655 0.4253254
v 0.4253249 0 0.2628655
v 0.4999995 0 0
v 0.404508 -0.25 0.1545085
v 0.4999995 0 0
v 0.4253249 0 -0.2628655
v 0.404508 -0.25 -0.1545085
v 0.4999995 0 0
v 0.404508 -0.25 -0.1545085
v 0.404508 -0.25 0.1545085
v 0.404508 -0.25 0.1545085
v 0.404508 -0.25 -0.1545085
v 0.2628651 -0.4253254 0
v 0.4253249 0 -0.2628655
v 0.2499995 0.1545085 -0.4045085
v 0.2499995 -0.1545085 -0.4045085
v 0.2499995 0.1545085 -0.4045085
v -4.768372E-07 0.2628655 -0.4253254
v -4.768372E-07 0 -0.5
v 0.2499995 0.1545085 -0.4045085
v -4.768372E-07 0 -0.5
v 0.2499995 -0.1545085 -0.4045085
v 0.2499995 -0.1545085 -0.4045085
v -4.768372E-07 0 -0.5
v -4.768372E-07 -0.2628655 -0.4253254
v -4.768372E-07 0.2628655 -0.4253254
v -0.1545089 0.4045085 -0.25
v -0.2500005 0.1545085 -0.4045085
v -0.1545089 0.4045085 -0.25
v -0.262866 0.4253254 0
v -0.4045089 0.25 -0.1545085
v -0.1545089 0.4045085 -0.25
v -0.4045089 0.25 -0.1545085
v -0.2500005 0.1545085 -0.4045085
v -0.2500005 0.1545085 -0.4045085
v -0.4045089 0.25 -0.1545085
v -0.4253259 0 -0.2628655
v -0.262866 -0.4253254 0
v -0.4045089 -0.25 0.1545085
v -0.1545089 -0.4045085 0.25
v -0.4045089 -0.25 0.1545085
v -0.4253259 0 0.2628655
v -0.2500005 -0.1545085 0.4045085
v -0.4045089 -0.25 0.1545085
v -0.2500005 -0.1545085 0.4045085
v -0.1545089 -0.4045085 0.25
v -0.1545089 -0.4045085 0.25
v -0.2500005 -0.1545085 0.4045085
v -4.768372E-07 -0.2628655 0.4253254
v -0.262866 -0.4253254 0
v -0.1545089 -0.4045085 0.25
v -4.768372E-07 -0.5 0
v -0.1545089 -0.4045085 0.25
v -4.768372E-07 -0.2628655 0.4253254
v 0.154508 -0.4045085 0.25
v -0.1545089 -0.4045085 0.25
v 0.154508 -0.4045085 0.25
v -4.768372E-07 -0.5 0
v -4.768372E-07 -0.5 0
v 0.154508 -0.4045085 0.25
v 0.2628651 -0.4253254 0
v -0.262866 -0.4253254 0
v -4.768372E-07 -0.5 0
v -0.1545089 -0.4045085 -0.25
v -4.768372E-07 -0.5 0
v 0.2628651 -0.4253254 0
v 0.154508 -0.4045085 -0.25
v -4.768372E-07 -0.5 0
v 0.154508 -0.4045085 -0.25
v -0.1545089 -0.4045085 -0.25
v -0.1545089 -0.4045085 -0.25
v 0.154508 -0.4045085 -0.25
v -4.768372E-07 -0.2628655 -0.4253254
v -0.262866 -0.4253254 0
v -0.1545089 -0.4045085 -0.25
v -0.4045089 -0.25 -0.1545085
v -0.1545089 -0.4045085 -0.25
v -4.768372E-07 -0.2628655 -0.4253254
v -0.2500005 -0.1545085 -0.4045085
v -0.1545089 -0.4045085 -0.25
v -0.2500005 -0.1545085 -0.4045085
v -0.4045089 -0.25 -0.1545085
v -0.4045089 -0.25 -0.1545085
v -0.2500005 -0.1545085 -0.4045085
v -0.4253259 0 -0.2628655
v -0.262866 -0.4253254 0
v -0.4045089 -0.25 -0.1545085
v -0.4045089 -0.25 0.1545085
v -0.4045089 -0.25 -0.1545085
v -0.4253259 0 -0.2628655
v -0.5000005 0 0
v -0.4045089 -0.25 -0.1545085
v -0.5000005 0 0
v -0.4045089 -0.25 0.1545085
v -0.4045089 -0.25 0.1545085
v -0.5000005 0 0
v -0.4253259 0 0.2628655
v -4.768372E-07 -0.2628655 0.4253254
v -0.2500005 -0.1545085 0.4045085
v -4.768372E-07 0 0.5
v -0.2500005 -0.1545085 0.4045085
v -0.4253259 0 0.2628655
v -0.2500005 0.1545085 0.4045085
v -0.2500005 -0.1545085 0.4045085
v -0.2500005 0.1545085 0.4045085
v -4.768372E-07 0 0.5
v -4.768372E-07 0 0.5
v -0.2500005 0.1545085 0.4045085
v -4.768372E-07 0.2628655 0.4253254
v 0.2628651 -0.4253254 0
v 0.154508 -0.4045085 0.25
v 0.404508 -0.25 0.1545085
v 0.154508 -0.4045085 0.25
v -4.768372E-07 -0.2628655 0.4253254
v 0.2499995 -0.1545085 0.4045085
v 0.154508 -0.4045085 0.25
v 0.2499995 -0.1545085 0.4045085
v 0.404508 -0.25 0.1545085
v 0.404508 -0.25 0.1545085
v 0.2499995 -0.1545085 0.4045085
v 0.4253249 0 0.2628655
v -4.768372E-07 -0.2628655 -0.4253254
v 0.154508 -0.4045085 -0.25
v 0.2499995 -0.1545085 -0.4045085
v 0.154508 -0.4045085 -0.25
v 0.2628651 -0.4253254 0
v 0.404508 -0.25 -0.1545085
v 0.154508 -0.4045085 -0.25
v 0.404508 -0.25 -0.1545085
v 0.2499995 -0.1545085 -0.4045085
v 0.2499995 -0.1545085 -0.4045085
v 0.404508 -0.25 -0.1545085
v 0.4253249 0 -0.2628655
v -0.4253259 0 -0.2628655
v -0.2500005 -0.1545085 -0.4045085
v -0.2500005 0.1545085 -0.4045085
v -0.2500005 -0.1545085 -0.4045085
v -4.768372E-07 -0.2628655 -0.4253254
v -4.768372E-07 0 -0.5
v -0.2500005 -0.1545085 -0.4045085
v -4.768372E-07 0 -0.5
v -0.2500005 0.1545085 -0.4045085
v -0.2500005 0.1545085 -0.4045085
v -4.768372E-07 0 -0.5
v -4.768372E-07 0.2628655 -0.4253254
v -0.4253259 0 0.2628655
v -0.5000005 0 0
v -0.4045089 0.25 0.1545085
v -0.5000005 0 0
v -0.4253259 0 -0.2628655
v -0.4045089 0.25 -0.1545085
v -0.5000005 0 0
v -0.4045089 0.25 -0.1545085
v -0.4045089 0.25 0.1545085
v -0.4045089 0.25 0.1545085
v -0.4045089 0.25 -0.1545085
v -0.262866 0.4253254 0

vn 0.5831288 0.7487834 0.3150938
vn 0.5831288 0.7487834 0.3150938
vn 0.5831288 0.7487834 0.3150938
vn 0.7487835 0.3150939 0.5831288
vn 0.7487835 0.3150939 0.5831288
vn 0.7487835 0.3150939 0.5831288
vn 0.5773503 0.5773502 0.5773503
vn 0.5773503 0.5773502 0.5773503
vn 0.5773503 0.5773502 0.5773503
vn 0.3150938 0.5831288 0.7487835
vn 0.3150938 0.5831288 0.7487835
vn 0.3150938 0.5831288 0.7487835
vn 0.2680349 0.9435222 0.1947387
vn 0.2680349 0.9435222 0.1947387
vn 0.2680349 0.9435222 0.1947387
vn 0 0.7778675 0.6284284
vn 0 0.7778675 0.6284284
vn 0 0.7778675 0.6284284
vn 0 0.9341724 0.3568221
vn 0 0.9341724 0.3568221
vn 0 0.9341724 0.3568221
vn -0.2680349 0.9435222 0.1947387
vn -0.2680349 0.9435222 0.1947387
vn -0.2680349 0.9435222 0.1947387
vn 0.2680349 0.9435222 -0.1947387
vn 0.2680349 0.9435222 -0.1947387
vn 0.2680349 0.9435222 -0.1947387
vn -0.2680349 0.9435222 -0.1947387
vn -0.2680349 0.9435222 -0.1947387
vn -0.2680349 0.9435222 -0.1947387
vn 0 0.9341724 -0.3568221
vn 0 0.9341724 -0.3568221
vn 0 0.9341724 -0.3568221
vn 0 0.7778675 -0.6284284
vn 0 0.7778675 -0.6284284
vn 0 0.7778675 -0.6284284
vn 0.5831288 0.7487834 -0.3150938
vn 0.5831288 0.7487834 -0.3150938
vn 0.5831288 0.7487834 -0.3150938
vn 0.3150938 0.5831288 -0.7487835
vn 0.3150938 0.5831288 -0.7487835
vn 0.3150938 0.5831288 -0.7487835
vn 0.5773503 0.5773503 -0.5773503
vn 0.5773503 0.5773503 -0.5773503
vn 0.5773503 0.5773503 -0.5773503
vn 0.7487835 0.3150939 -0.5831288
vn 0.7487835 0.3150939 -0.5831288
vn 0.7487835 0.3150939 -0.5831288
vn 0.7778674 0.6284283 0
vn 0.7778674 0.6284283 0
vn 0.7778674 0.6284283 0
vn 0.9435222 0.1947387 -0.2680349
vn 0.9435222 0.1947387 -0.2680349
vn 0.9435222 0.1947387 -0.2680349
vn 0.9341724 0.3568221 0
vn 0.9341724 0.3568221 0
vn 0.9341724 0.3568221 0
vn 0.9435222 0.1947387 0.2680349
vn 0.9435222 0.1947387 0.2680349
vn 0.9435222 0.1947387 0.2680349
vn -0.5831288 0.7487835 0.3150939
vn -0.5831288 0.7487835 0.3150939
vn -0.5831288 0.7487835 0.3150939
vn -0.3150938 0.5831288 0.7487834
vn -0.3150938 0.5831288 0.7487834
vn -0.3150938 0.5831288 0.7487834
vn -0.5773503 0.5773503 0.5773503
vn -0.5773503 0.5773503 0.5773503
vn -0.5773503 0.5773503 0.5773503
vn -0.7487835 0.3150939 0.5831288
vn -0.7487835 0.3150939 0.5831288
vn -0.7487835 0.3150939 0.5831288
vn 0.1947387 0.2680349 0.9435222
vn 0.1947387 0.2680349 0.9435222
vn 0.1947387 0.2680349 0.9435222
vn 0.6284284 0 0.7778675
vn 0.6284284 0 0.7778675
vn 0.6284284 0 0.7778675
vn 0.3568221 0 0.9341724
vn 0.3568221 0 0.9341724
vn 0.3568221 0 0.9341724
vn 0.1947387 -0.2680349 0.9435222
vn 0.1947387 -0.2680349 0.9435222
vn 0.1947387 -0.2680349 0.9435222
vn 0.9435222 -0.1947387 0.2680349
vn 0.9435222 -0.1947387 0.2680349
vn 0.9435222 -0.1947387 0.2680349
vn 0.9435222 -0.1947387 -0.2680349
vn 0.9435222 -0.1947387 -0.2680349
vn 0.9435222 -0.1947387 -0.2680349
vn 0.9341724 -0.3568221 0
vn 0.9341724 -0.3568221 0
vn 0.9341724 -0.3568221 0
vn 0.7778674 -0.6284283 0
vn 0.7778674 -0.6284283 0
vn 0.7778674 -0.6284283 0
vn 0.6284284 0 -0.7778675
vn 0.6284284 0 -0.7778675
vn 0.6284284 0 -0.7778675
vn 0.1947387 0.2680349 -0.9435222
vn 0.1947387 0.2680349 -0.9435222
vn 0.1947387 0.2680349 -0.9435222
vn 0.3568221 0 -0.9341724
vn 0.3568221 0 -0.9341724
vn 0.3568221 0 -0.9341724
vn 0.1947387 -0.2680349 -0.9435222
vn 0.1947387 -0.2680349 -0.9435222
vn 0.1947387 -0.2680349 -0.9435222
vn -0.3150938 0.5831288 -0.7487835
vn -0.3150938 0.5831288 -0.7487835
vn -0.3150938 0.5831288 -0.7487835
vn -0.5831288 0.7487835 -0.3150939
vn -0.5831288 0.7487835 -0.3150939
vn -0.5831288 0.7487835 -0.3150939
vn -0.5773503 0.5773503 -0.5773503
vn -0.5773503 0.5773503 -0.5773503
vn -0.5773503 0.5773503 -0.5773503
vn -0.7487835 0.3150939 -0.5831287
vn -0.7487835 0.3150939 -0.5831287
vn -0.7487835 0.3150939 -0.5831287
vn -0.5831287 -0.7487833 0.3150939
vn -0.5831287 -0.7487833 0.3150939
vn -0.5831287 -0.7487833 0.3150939
vn -0.7487835 -0.3150939 0.5831288
vn -0.7487835 -0.3150939 0.5831288
vn -0.7487835 -0.3150939 0.5831288
vn -0.5773503 -0.5773503 0.5773503
vn -0.5773503 -0.5773503 0.5773503
vn -0.5773503 -0.5773503 0.5773503
vn -0.3150939 -0.5831288 0.7487834
vn -0.3150939 -0.5831288 0.7487834
vn -0.3150939 -0.5831288 0.7487834
vn -0.2680349 -0.9435221 0.1947388
vn -0.2680349 -0.9435221 0.1947388
vn -0.2680349 -0.9435221 0.1947388
vn 0 -0.7778676 0.6284283
vn 0 -0.7778676 0.6284283
vn 0 -0.7778676 0.6284283
vn 0 -0.9341724 0.3568222
vn 0 -0.9341724 0.3568222
vn 0 -0.9341724 0.3568222
vn 0.2680349 -0.9435221 0.1947388
vn 0.2680349 -0.9435221 0.1947388
vn 0.2680349 -0.9435221 0.1947388
vn -0.2680349 -0.9435221 -0.1947388
vn -0.2680349 -0.9435221 -0.1947388
vn -0.2680349 -0.9435221 -0.1947388
vn 0.2680349 -0.9435221 -0.1947388
vn 0.2680349 -0.9435221 -0.1947388
vn 0.2680349 -0.9435221 -0.1947388
vn 0 -0.9341724 -0.3568222
vn 0 -0.9341724 -0.3568222
vn 0 -0.9341724 -0.3568222
vn 0 -0.7778676 -0.6284283
vn 0 -0.7778676 -0.6284283
vn 0 -0.7778676 -0.6284283
vn -0.5831287 -0.7487833 -0.3150939
vn -0.5831287 -0.7487833 -0.3150939
vn -0.5831287 -0.7487833 -0.3150939
vn -0.3150939 -0.5831288 -0.7487834
vn -0.3150939 -0.5831288 -0.7487834
vn -0.3150939 -0.5831288 -0.7487834
vn -0.5773502 -0.5773503 -0.5773502
vn -0.5773502 -0.5773503 -0.5773502
vn -0.5773502 -0.5773503 -0.5773502
vn -0.7487835 -0.3150939 -0.5831288
vn -0.7487835 -0.3150939 -0.5831288
vn -0.7487835 -0.3150939 -0.5831288
vn -0.7778676 -0.6284283 0
vn -0.7778676 -0.6284283 0
vn -0.7778676 -0.6284283 0
vn -0.9435221 -0.1947388 -0.2680349
vn -0.9435221 -0.1947388 -0.2680349
vn -0.9435221 -0.1947388 -0.2680349
vn -0.9341724 -0.3568222 0
vn -0.9341724 -0.3568222 0
vn -0.9341724 -0.3568222 0
vn -0.9435221 -0.1947388 0.2680349
vn -0.9435221 -0.1947388 0.2680349
vn -0.9435221 -0.1947388 0.2680349
vn -0.1947387 -0.2680349 0.9435222
vn -0.1947387 -0.2680349 0.9435222
vn -0.1947387 -0.2680349 0.9435222
vn -0.6284284 0 0.7778675
vn -0.6284284 0 0.7778675
vn -0.6284284 0 0.7778675
vn -0.3568221 0 0.9341724
vn -0.3568221 0 0.9341724
vn -0.3568221 0 0.9341724
vn -0.1947387 0.2680349 0.9435222
vn -0.1947387 0.2680349 0.9435222
vn -0.1947387 0.2680349 0.9435222
vn 0.5831287 -0.7487834 0.3150939
vn 0.5831287 -0.7487834 0.3150939
vn 0.5831287 -0.7487834 0.3150939
vn 0.3150938 -0.5831288 0.7487833
vn 0.3150938 -0.5831288 0.7487833
vn 0.3150938 -0.5831288 0.7487833
vn 0.5773502 -0.5773503 0.5773503
vn 0.5773502 -0.5773503 0.5773503
vn 0.5773502 -0.5773503 0.5773503
vn 0.7487835 -0.3150939 0.5831288
vn 0.7487835 -0.3150939 0.5831288
vn 0.7487835 -0.3150939 0.5831288
vn 0.3150938 -0.5831288 -0.7487833
vn 0.3150938 -0.5831288 -0.7487833
vn 0.3150938 -0.5831288 -0.7487833
vn 0.5831287 -0.7487833 -0.3150939
vn 0.5831287 -0.7487833 -0.3150939
vn 0.5831287 -0.7487833 -0.3150939
vn 0.5773502 -0.5773503 -0.5773503
vn 0.5773502 -0.5773503 -0.5773503
vn 0.5773502 -0.5773503 -0.5773503
vn 0.7487835 -0.3150938 -0.5831288
vn 0.7487835 -0.3150938 -0.5831288
vn 0.7487835 -0.3150938 -0.5831288
vn -0.6284284 0 -0.7778675
vn -0.6284284 0 -0.7778675
vn -0.6284284 0 -0.7778675
vn -0.1947387 -0.2680349 -0.9435222
vn -0.1947387 -0.2680349 -0.9435222
vn -0.1947387 -0.2680349 -0.9435222
vn -0.3568221 0 -0.9341724
vn -0.3568221 0 -0.9341724
vn -0.3568221 0 -0.9341724
vn -0.1947387 0.2680349 -0.9435222
vn -0.1947387 0.2680349 -0.9435222
vn -0.1947387 0.2680349 -0.9435222
vn -0.9435221 0.1947388 0.2680349
vn -0.9435221 0.1947388 0.2680349
vn -0.9435221 0.1947388 0.2680349
vn -0.9435221 0.1947388 -0.2680349
vn -0.9435221 0.1947388 -0.2680349
vn -0.9435221 0.1947388 -0.2680349
vn -0.9341724 0.3568222 0
vn -0.9341724 0.3568222 0
vn -0.9341724 0.3568222 0
vn -0.7778676 0.6284283 0
vn -0.7778676 0.6284283 0
vn -0.7778676 0.6284283 0

vt -0.2628655 0
vt -0.4045085 0.1545085
vt -0.1545085 0.25
vt -0.1545085 0.25
vt -0.2628655 0
vt -0.4045085 0.1545085
vt 0.4045085 0.25
vt 0.25 0.1545085
vt 0.1545085 0.4045085
vt 0.1545085 0.4045085
vt 0.25 0.1545085
vt 0 0.2628655
vt -0.2628655 0
vt -0.1545085 0.25
vt 0 0
vt -0.1545085 0.25
vt 0 0.4253254
vt 0.1545085 0.25
vt -0.1545085 0.25
vt 0.1545085 0.25
vt 0 0
vt 0 0
vt 0.1545085 0.25
vt 0.2628655 0
vt -0.2628655 0
vt 0 0
vt -0.1545085 -0.25
vt 0 0
vt 0.2628655 0
vt 0.1545085 -0.25
vt 0 0
vt 0.1545085 -0.25
vt -0.1545085 -0.25
vt -0.1545085 -0.25
vt 0.1545085 -0.25
vt 0 -0.4253254
vt -0.2628655 0
vt -0.1545085 -0.25
vt -0.4045085 -0.1545085
vt -0.1545085 0.4045085
vt 0 0.2628655
vt -0.25 0.1545085
vt 0.25 0.4045085
vt 0.4045085 0.1545085
vt 0.1545085 0.25
vt 0.1545085 0.25
vt 0.4045085 0.1545085
vt 0.2628655 0
vt 0 0.4253254
vt 0.1545085 0.25
vt -0.1545085 0.25
vt 0.1545085 0.25
vt 0.2628655 0
vt 0 0
vt 0.1545085 0.25
vt 0 0
vt -0.1545085 0.25
vt -0.1545085 0.25
vt 0 0
vt -0.2628655 0
vt 0.2628655 0
vt 0.1545085 0.25
vt 0.4045085 0.1545085
vt -0.1545085 0.4045085
vt 0 0.2628655
vt -0.25 0.1545085
vt 0.25 0.4045085
vt 0.4045085 0.1545085
vt 0.1545085 0.25
vt 0.1545085 0.25
vt 0.4045085 0.1545085
vt 0.2628655 0
vt 0 0.2628655
vt 0.25 0.1545085
vt 0 0
vt 0.25 0.1545085
vt 0.4253254 0
vt 0.25 -0.1545085
vt 0.25 0.1545085
vt 0.25 -0.1545085
vt 0 0
vt 0 0
vt 0.25 -0.1545085
vt 0 -0.2628655
vt -0.2628655 0
vt 0 0
vt -0.1545085 -0.25
vt 0 0
vt 0.2628655 0
vt 0.1545085 -0.25
vt 0 0
vt 0.1545085 -0.25
vt -0.1545085 -0.25
vt -0.1545085 -0.25
vt 0.1545085 -0.25
vt 0 -0.4253254
vt -0.4253254 0
vt -0.25 0.1545085
vt -0.25 -0.1545085
vt -0.25 0.1545085
vt 0 0.2628655
vt 0 0
vt -0.25 0.1545085
vt 0 0
vt -0.25 -0.1545085
vt -0.25 -0.1545085
vt 0 0
vt 0 -0.2628655
vt 0 0.2628655
vt 0.1545085 0.4045085
vt 0.25 0.1545085
vt 0.1545085 -0.25
vt 0.2628655 0
vt 0.4045085 -0.1545085
vt -0.25 0.4045085
vt -0.1545085 0.25
vt -0.4045085 0.1545085
vt -0.4045085 0.1545085
vt -0.1545085 0.25
vt -0.2628655 0
vt -0.2628655 0
vt -0.4045085 0.1545085
vt -0.1545085 0.25
vt 0.1545085 -0.25
vt 0.2628655 0
vt 0.4045085 -0.1545085
vt -0.4045085 -0.25
vt -0.25 -0.1545085
vt -0.1545085 -0.4045085
vt -0.1545085 -0.4045085
vt -0.25 -0.1545085
vt 0 -0.2628655
vt -0.2628655 0
vt -0.1545085 0.25
vt 0 0
vt -0.1545085 0.25
vt 0 0.4253254
vt 0.1545085 0.25
vt -0.1545085 0.25
vt 0.1545085 0.25
vt 0 0
vt 0 0
vt 0.1545085 0.25
vt 0.2628655 0
vt -0.2628655 0
vt 0 0
vt -0.1545085 -0.25
vt 0 0
vt 0.2628655 0
vt 0.1545085 -0.25
vt 0 0
vt 0.1545085 -0.25
vt -0.1545085 -0.25
vt -0.1545085 -0.25
vt 0.1545085 -0.25
vt 0 -0.4253254
vt -0.2628655 0
vt -0.1545085 -0.25
vt -0.4045085 -0.1545085
vt 0.1545085 -0.4045085
vt 0 -0.2628655
vt 0.25 -0.1545085
vt -0.25 -0.4045085
vt -0.4045085 -0.1545085
vt -0.1545085 -0.25
vt -0.1545085 -0.25
vt -0.4045085 -0.1545085
vt -0.2628655 0
vt 0 -0.4253254
vt -0.1545085 -0.25
vt 0.1545085 -0.25
vt -0.1545085 -0.25
vt -0.2628655 0
vt 0 0
vt -0.1545085 -0.25
vt 0 0
vt 0.1545085 -0.25
vt 0.1545085 -0.25
vt 0 0
vt 0.2628655 0
vt 0 -0.2628655
vt -0.25 -0.1545085
vt 0 0
vt -0.25 -0.1545085
vt -0.4253254 0
vt -0.25 0.1545085
vt -0.25 -0.1545085
vt -0.25 0.1545085
vt 0 0
vt 0 0
vt -0.25 0.1545085
vt 0 0.2628655
vt 0.2628655 0
vt 0.1545085 0.25
vt 0.4045085 0.1545085
vt 0.1545085 -0.4045085
vt 0 -0.2628655
vt 0.25 -0.1545085
vt -0.25 -0.4045085
vt -0.4045085 -0.1545085
vt -0.1545085 -0.25
vt -0.1545085 -0.25
vt -0.4045085 -0.1545085
vt -0.2628655 0
vt 0 -0.2628655
vt -0.1545085 -0.4045085
vt -0.25 -0.1545085
vt 0.1545085 -0.25
vt 0.2628655 0
vt 0.4045085 -0.1545085
vt 0.25 -0.4045085
vt 0.1545085 -0.25
vt 0.4045085 -0.1545085
vt 0.4045085 -0.1545085
vt 0.1545085 -0.25
vt 0.2628655 0
vt 0.4253254 0
vt 0.25 -0.1545085
vt 0.25 0.1545085
vt 0.25 -0.1545085
vt 0 -0.2628655
vt 0 0
vt 0.25 -0.1545085
vt 0 0
vt 0.25 0.1545085
vt 0.25 0.1545085
vt 0 0
vt 0 0.2628655
vt 0.2628655 0
vt 0 0
vt 0.1545085 0.25
vt 0 0
vt -0.2628655 0
vt -0.1545085 0.25
vt 0 0
vt -0.1545085 0.25
vt 0.1545085 0.25
vt 0.1545085 0.25
vt -0.1545085 0.25
vt 0 0.4253254

g Default_Prototype
usemtl Default_Prototype
usemap Default_Prototype
f 2/2/2 1/1/1 3/3/3
f 5/5/5 4/4/4 6/6/6
f 8/8/8 7/7/7 9/9/9
f 11/11/11 10/10/10 12/12/12
f 14/14/14 13/13/13 15/15/15
f 17/17/17 16/16/16 18/18/18
f 20/20/20 19/19/19 21/21/21
f 23/23/23 22/22/22 24/24/24
f 26/26/26 25/25/25 27/27/27
f 29/29/29 28/28/28 30/30/30
f 32/32/32 31/31/31 33/33/33
f 35/35/35 34/34/34 36/36/36
f 38/38/38 37/37/37 39/39/39
f 41/41/41 40/40/40 42/42/42
f 44/44/44 43/43/43 45/45/45
f 47/47/47 46/46/46 48/48/48
f 50/50/50 49/49/49 51/51/51
f 53/53/53 52/52/52 54/54/54
f 56/56/56 55/55/55 57/57/57
f 59/59/59 58/58/58 60/60/60
f 62/62/62 61/61/61 63/63/63
f 65/65/65 64/64/64 66/66/66
f 68/68/68 67/67/67 69/69/69
f 71/71/71 70/70/70 72/72/72
f 74/74/74 73/73/73 75/75/75
f 77/77/77 76/76/76 78/78/78
f 80/80/80 79/79/79 81/81/81
f 83/83/83 82/82/82 84/84/84
f 86/86/86 85/85/85 87/87/87
f 89/89/89 88/88/88 90/90/90
f 92/92/92 91/91/91 93/93/93
f 95/95/95 94/94/94 96/96/96
f 98/98/98 97/97/97 99/99/99
f 101/101/101 100/100/100 102/102/102
f 104/104/104 103/103/103 105/105/105
f 107/107/107 106/106/106 108/108/108
f 110/110/110 109/109/109 111/111/111
f 113/113/113 112/112/112 114/114/114
f 116/116/116 115/115/115 117/117/117
f 119/119/119 118/118/118 120/120/120
f 122/122/122 121/121/121 123/123/123
f 125/125/125 124/124/124 126/126/126
f 128/128/128 127/127/127 129/129/129
f 131/131/131 130/130/130 132/132/132
f 134/134/134 133/133/133 135/135/135
f 137/137/137 136/136/136 138/138/138
f 140/140/140 139/139/139 141/141/141
f 143/143/143 142/142/142 144/144/144
f 146/146/146 145/145/145 147/147/147
f 149/149/149 148/148/148 150/150/150
f 152/152/152 151/151/151 153/153/153
f 155/155/155 154/154/154 156/156/156
f 158/158/158 157/157/157 159/159/159
f 161/161/161 160/160/160 162/162/162
f 164/164/164 163/163/163 165/165/165
f 167/167/167 166/166/166 168/168/168
f 170/170/170 169/169/169 171/171/171
f 173/173/173 172/172/172 174/174/174
f 176/176/176 175/175/175 177/177/177
f 179/179/179 178/178/178 180/180/180
f 182/182/182 181/181/181 183/183/183
f 185/185/185 184/184/184 186/186/186
f 188/188/188 187/187/187 189/189/189
f 191/191/191 190/190/190 192/192/192
f 194/194/194 193/193/193 195/195/195
f 197/197/197 196/196/196 198/198/198
f 200/200/200 199/199/199 201/201/201
f 203/203/203 202/202/202 204/204/204
f 206/206/206 205/205/205 207/207/207
f 209/209/209 208/208/208 210/210/210
f 212/212/212 211/211/211 213/213/213
f 215/215/215 214/214/214 216/216/216
f 218/218/218 217/217/217 219/219/219
f 221/221/221 220/220/220 222/222/222
f 224/224/224 223/223/223 225/225/225
f 227/227/227 226/226/226 228/228/228
f 230/230/230 229/229/229 231/231/231
f 233/233/233 232/232/232 234/234/234
f 236/236/236 235/235/235 237/237/237
f 239/239/239 238/238/238 240/240/240
