mtllib ./Log.mtl
g Log
v -0.5 -0.4999995 0
v -0.5 0.5000005 0
v -0.4330127 -0.4999995 0.25
v -0.4330127 0.5000005 0.25
v -0.4330127 -0.4999995 0.25
v -0.4330127 0.5000005 0.25
v -0.25 -0.4999995 0.4330127
v -0.25 0.5000005 0.4330127
v -0.25 -0.4999995 0.4330127
v -0.25 0.5000005 0.4330127
v 2.185569E-08 -0.4999995 0.5
v 2.185569E-08 0.5000005 0.5
v 2.185569E-08 -0.4999995 0.5
v 2.185569E-08 0.5000005 0.5
v 0.25 -0.4999995 0.4330127
v 0.25 0.5000005 0.4330127
v 0.25 -0.4999995 0.4330127
v 0.25 0.5000005 0.4330127
v 0.4330127 -0.4999995 0.25
v 0.4330127 0.5000005 0.25
v 0.4330127 -0.4999995 0.25
v 0.4330127 0.5000005 0.25
v 0.5 -0.4999995 -4.371139E-08
v 0.5 0.5000005 -4.371139E-08
v 0.5 -0.4999995 -4.371139E-08
v 0.5 0.5000005 -4.371139E-08
v 0.4330127 -0.4999995 -0.25
v 0.4330127 0.5000005 -0.25
v 0.4330127 -0.4999995 -0.25
v 0.4330127 0.5000005 -0.25
v 0.25 -0.4999995 -0.4330127
v 0.25 0.5000005 -0.4330127
v 0.25 -0.4999995 -0.4330127
v 0.25 0.5000005 -0.4330127
v -5.96244E-09 -0.4999995 -0.5
v -5.96244E-09 0.5000005 -0.5
v -5.96244E-09 -0.4999995 -0.5
v -5.96244E-09 0.5000005 -0.5
v -0.25 -0.4999995 -0.4330127
v -0.25 0.5000005 -0.4330127
v -0.25 -0.4999995 -0.4330127
v -0.25 0.5000005 -0.4330127
v -0.4330127 -0.4999995 -0.2500001
v -0.4330127 0.5000005 -0.2500001
v -0.4330127 -0.4999995 -0.2500001
v -0.4330127 0.5000005 -0.2500001
v -0.5 -0.4999995 0
v -0.5 0.5000005 0
v -0.4330127 -0.4999995 0.25
v 0 -0.4999995 0
v -0.5 -0.4999995 0
v -0.25 -0.4999995 0.4330127
v 0 -0.4999995 0
v -0.4330127 -0.4999995 0.25
v 2.185569E-08 -0.4999995 0.5
v 0 -0.4999995 0
v -0.25 -0.4999995 0.4330127
v 0.25 -0.4999995 0.4330127
v 0 -0.4999995 0
v 2.185569E-08 -0.4999995 0.5
v 0.4330127 -0.4999995 0.25
v 0.5 -0.4999995 -4.371139E-08
v 0.4330127 -0.4999995 -0.25
v 0 -0.4999995 0
v 0.5 -0.4999995 -4.371139E-08
v 0.25 -0.4999995 -0.4330127
v 0 -0.4999995 0
v 0.4330127 -0.4999995 -0.25
v -5.96244E-09 -0.4999995 -0.5
v 0 -0.4999995 0
v 0.25 -0.4999995 -0.4330127
v -0.25 -0.4999995 -0.4330127
v 0 -0.4999995 0
v -5.96244E-09 -0.4999995 -0.5
v -0.4330127 -0.4999995 -0.2500001
v 0 -0.4999995 0
v -0.25 -0.4999995 -0.4330127
v -0.5 -0.4999995 0
v 0 -0.4999995 0
v -0.4330127 -0.4999995 -0.2500001
v -0.5 0.5000005 0
v 0 0.5000005 0
v -0.4330127 0.5000005 0.25
v -0.25 0.5000005 0.4330127
v -0.25 0.5000005 0.4330127
v 2.185569E-08 0.5000005 0.5
v 2.185569E-08 0.5000005 0.5
v 0 0.5000005 0
v 0.25 0.5000005 0.4330127
v 0.25 0.5000005 0.4330127
v 0 0.5000005 0
v 0.4330127 0.5000005 0.25
v 0.4330127 0.5000005 0.25
v 0 0.5000005 0
v 0.5 0.5000005 -4.371139E-08
v 0.5 0.5000005 -4.371139E-08
v 0 0.5000005 0
v 0.4330127 0.5000005 -0.25
v 0.4330127 0.5000005 -0.25
v 0 0.5000005 0
v 0.25 0.5000005 -0.4330127
v 0.25 0.5000005 -0.4330127
v 0 0.5000005 0
v -5.96244E-09 0.5000005 -0.5
v -5.96244E-09 0.5000005 -0.5
v 0 0.5000005 0
v -0.25 0.5000005 -0.4330127
v -0.25 0.5000005 -0.4330127
v 0 0.5000005 0
v -0.4330127 0.5000005 -0.2500001
v -0.4330127 0.5000005 -0.2500001
v 0 0.5000005 0
v -0.5 0.5000005 0

vn -0.9659258 0 0.2588191
vn -0.9659258 0 0.2588191
vn -0.9659258 0 0.2588191
vn -0.9659258 0 0.2588191
vn -0.7071068 0 0.7071067
vn -0.7071068 0 0.7071067
vn -0.7071068 0 0.7071067
vn -0.7071068 0 0.7071067
vn -0.258819 0 0.9659258
vn -0.258819 0 0.9659258
vn -0.258819 0 0.9659258
vn -0.258819 0 0.9659258
vn 0.2588191 0 0.9659258
vn 0.2588191 0 0.9659258
vn 0.2588191 0 0.9659258
vn 0.2588191 0 0.9659258
vn 0.7071068 0 0.7071068
vn 0.7071068 0 0.7071068
vn 0.7071068 0 0.7071068
vn 0.7071068 0 0.7071068
vn 0.9659259 0 0.258819
vn 0.9659259 0 0.258819
vn 0.9659259 0 0.258819
vn 0.9659259 0 0.258819
vn 0.9659258 0 -0.2588191
vn 0.9659258 0 -0.2588191
vn 0.9659258 0 -0.2588191
vn 0.9659258 0 -0.2588191
vn 0.7071068 0 -0.7071068
vn 0.7071068 0 -0.7071068
vn 0.7071068 0 -0.7071068
vn 0.7071068 0 -0.7071068
vn 0.258819 0 -0.9659258
vn 0.258819 0 -0.9659258
vn 0.258819 0 -0.9659258
vn 0.258819 0 -0.9659258
vn -0.258819 0 -0.9659258
vn -0.258819 0 -0.9659258
vn -0.258819 0 -0.9659258
vn -0.258819 0 -0.9659258
vn -0.7071066 0 -0.7071069
vn -0.7071066 0 -0.7071069
vn -0.7071066 0 -0.7071069
vn -0.7071066 0 -0.7071069
vn -0.9659259 0 -0.2588191
vn -0.9659259 0 -0.2588191
vn -0.9659259 0 -0.2588191
vn -0.9659259 0 -0.2588191
vn 0 -1 0
vn 0 -1 0
vn 0 -1 0
vn 0 -1 0
vn 0 -1 0
vn 0 -1 0
vn 0 -1 0
vn 0 -1 0
vn 0 -1 0
vn 0 -1 0
vn 0 -1 0
vn 0 -1 0
vn 0 -1 0
vn 0 -1 0
vn 0 -1 0
vn 0 -1 0
vn 0 -1 0
vn 0 -1 0
vn 0 -1 0
vn 0 -1 0
vn 0 -1 0
vn 0 -1 0
vn 0 -1 0
vn 0 -1 0
vn 0 -1 0
vn 0 -1 0
vn 0 -1 0
vn 0 -1 0
vn 0 -1 0
vn 0 -1 0
vn 0 -1 0
vn 0 -1 0
vn 0 1 0
vn 0 1 0
vn 0 1 0
vn 0 1 0
vn 0 1 0
vn 0 1 0
vn 0 1 0
vn 0 1 0
vn 0 1 0
vn 0 1 0
vn 0 1 0
vn 0 1 0
vn 0 1 0
vn 0 1 0
vn 0 1 0
vn 0 1 0
vn 0 1 0
vn 0 1 0
vn 0 1 0
vn 0 1 0
vn 0 1 0
vn 0 1 0
vn 0 1 0
vn 0 1 0
vn 0 1 0
vn 0 1 0
vn 0 1 0
vn 0 1 0
vn 0 1 0
vn 0 1 0
vn 0 1 0
vn 0 1 0
vn 0 1 0

vt 0 0
vt 0 1
vt 0.258819 0
vt 0.258819 1
vt 0 0
vt 0 1
vt 0.2588191 0
vt 0.2588191 1
vt 0 0
vt 0 1
vt 0.258819 0
vt 0.258819 1
vt 0 0
vt 0 1
vt 0.258819 0
vt 0.258819 1
vt 0 0
vt 0 1
vt 0.258819 0
vt 0.258819 1
vt 0 0
vt 0 1
vt 0.2588191 0
vt 0.2588191 1
vt 0 0
vt 0 1
vt 0.258819 0
vt 0.258819 1
vt 0 0
vt 0 1
vt 0.2588191 0
vt 0.2588191 1
vt 0 0
vt 0 1
vt 0.258819 0
vt 0.258819 1
vt 0 0
vt 0 1
vt 0.258819 0
vt 0.258819 1
vt 0 0
vt 0 1
vt 0.258819 0
vt 0.258819 1
vt 0 0
vt 0 1
vt 0.2588192 0
vt 0.2588192 1
vt 0.06698731 0.25
vt 0.5 0
vt 0 0
vt 0.1830127 0.4330127
vt 0.4330127 0
vt 0 0.25
vt 0.25 0.5
vt 0.25 0
vt 0 0.4330127
vt 0.25 0.4330127
vt 0 0
vt 2.185569E-08 0.5
vt 0.4330127 0.25
vt 0.5 0
vt 0.4330127 0
vt 0 0.25
vt 0.5 0.2499999
vt 0.25 0
vt 0 0.4330127
vt 0.4330127 0.1830127
vt 0 0
vt 5.96244E-09 0.5
vt 0.25 0.06698728
vt 0 0.06698728
vt 0.25 0.5
vt 0.25 0
vt 0 0.1830126
vt 0.4330127 0.4330127
vt 0.1830127 0
vt 0 0.2500001
vt 0.5 0.2500001
vt 0.06698734 0
vt 0.5 0
vt 0 0
vt 0.4330127 0.25
vt 0.25 0.4330127
vt 0.25 0.4330127
vt 0 0.5
vt 0.25 0.5
vt 0.25 0
vt 0 0.4330127
vt 0.1830127 0.4330127
vt 0.4330127 0
vt 0 0.25
vt 0.06698731 0.2500001
vt 0.5 4.371139E-08
vt 0 0
vt 0 0.2499999
vt 0.5 0.25
vt 0.06698731 0
vt 0 0.1830127
vt 0.4330127 0.4330127
vt 0.1830127 0
vt 0 0.06698728
vt 0.25 0.5
vt 0.25 0
vt 5.96244E-09 0
vt 0 0.5
vt 0.25 0.06698728
vt 0.25 0
vt 0 0.4330127
vt 0.4330127 0.1830126
vt 0.4330127 0
vt 0 0.2500001
vt 0.5 0.2500001

g Default_Prototype
usemtl Default_Prototype
usemap Default_Prototype
f 2/2/2 1/1/1 3/3/3
f 4/4/4 2/2/2 3/3/3
f 6/6/6 5/5/5 7/7/7
f 8/8/8 6/6/6 7/7/7
f 10/10/10 9/9/9 11/11/11
f 12/12/12 10/10/10 11/11/11
f 14/14/14 13/13/13 15/15/15
f 16/16/16 14/14/14 15/15/15
f 18/18/18 17/17/17 19/19/19
f 20/20/20 18/18/18 19/19/19
f 22/22/22 21/21/21 23/23/23
f 24/24/24 22/22/22 23/23/23
f 26/26/26 25/25/25 27/27/27
f 28/28/28 26/26/26 27/27/27
f 30/30/30 29/29/29 31/31/31
f 32/32/32 30/30/30 31/31/31
f 34/34/34 33/33/33 35/35/35
f 36/36/36 34/34/34 35/35/35
f 38/38/38 37/37/37 39/39/39
f 40/40/40 38/38/38 39/39/39
f 42/42/42 41/41/41 43/43/43
f 44/44/44 42/42/42 43/43/43
f 46/46/46 45/45/45 47/47/47
f 48/48/48 46/46/46 47/47/47
f 50/50/50 49/49/49 51/51/51
f 53/53/53 52/52/52 54/54/54
f 56/56/56 55/55/55 57/57/57
f 59/59/59 58/58/58 60/60/60
f 59/59/59 61/61/61 58/58/58
f 59/59/59 62/62/62 61/61/61
f 64/64/64 63/63/63 65/65/65
f 67/67/67 66/66/66 68/68/68
f 70/70/70 69/69/69 71/71/71
f 73/73/73 72/72/72 74/74/74
f 76/76/76 75/75/75 77/77/77
f 79/79/79 78/78/78 80/80/80
f 82/82/82 81/81/81 83/83/83
f 82/82/82 83/83/83 84/84/84
f 82/82/82 85/85/85 86/86/86
f 88/88/88 87/87/87 89/89/89
f 91/91/91 90/90/90 92/92/92
f 94/94/94 93/93/93 95/95/95
f 97/97/97 96/96/96 98/98/98
f 100/100/100 99/99/99 101/101/101
f 103/103/103 102/102/102 104/104/104
f 106/106/106 105/105/105 107/107/107
f 109/109/109 108/108/108 110/110/110
f 112/112/112 111/111/111 113/113/113
